<?xml version="1.0" encoding="iso-8859-1"?>
<!-- Generator: Adobe Illustrator 16.0.0, SVG Export Plug-In . SVG Version: 6.00 Build 0)  -->
<!DOCTYPE svg PUBLIC "-//W3C//DTD SVG 1.1//EN" "http://www.w3.org/Graphics/SVG/1.1/DTD/svg11.dtd">
<svg version="1.1" id="Layer_1" xmlns="http://www.w3.org/2000/svg" xmlns:xlink="http://www.w3.org/1999/xlink" x="0px" y="0px"
	 width="540px" height="69px" viewBox="0 0 540 69" style="enable-background:new 0 0 540 69;" xml:space="preserve">
<g>
	<path d="M31.987,37.125c-1.872-1.009-3.166-1.872-3.882-2.588c-1.123-1.123-1.685-2.474-1.685-4.053
		c0-1.595,0.562-2.958,1.685-4.089c1.123-1.131,2.474-1.697,4.053-1.697c1.595,0,2.913,0.521,3.955,1.562
		c1.009,1.025,1.514,2.189,1.514,3.491v0.122l-1.904,0.757c-0.163-1.237-0.549-2.165-1.16-2.783
		c-0.61-0.618-1.412-0.928-2.405-0.928c-0.977,0-1.815,0.346-2.515,1.038c-0.7,0.692-1.05,1.534-1.05,2.527
		c0,0.977,0.35,1.815,1.05,2.515c0.407,0.407,1.27,1.025,2.588,1.855c2.083,1.14,3.564,2.148,4.443,3.027
		c1.383,1.4,2.075,3.068,2.075,5.005c0,1.986-0.692,3.674-2.075,5.066c-1.384,1.392-3.06,2.087-5.029,2.087
		c-1.97,0-3.646-0.696-5.029-2.087c-1.384-1.392-2.075-2.917-2.075-4.578l2.173-0.562c0,1.433,0.484,2.629,1.453,3.589
		c0.968,0.96,2.128,1.44,3.479,1.44c1.351,0,2.51-0.48,3.479-1.44c0.968-0.96,1.453-2.132,1.453-3.516
		c0-1.351-0.48-2.506-1.44-3.467C34.616,38.899,33.566,38.134,31.987,37.125z"/>
	<path d="M70.854,49.454h-2.197v-4.883c-0.423,0.57-0.887,1.115-1.392,1.636c-2.621,2.621-5.786,3.931-9.497,3.931
		c-3.695,0-6.853-1.31-9.473-3.931c-2.621-2.62-3.931-5.778-3.931-9.473c0-3.711,1.31-6.876,3.931-9.497
		c2.62-2.62,5.778-3.931,9.473-3.931c3.711,0,6.876,1.311,9.497,3.931c0.504,0.521,0.968,1.066,1.392,1.636v-3.394h2.197V49.454z
		 M68.657,38.907v-4.346c-0.407-2.148-1.424-4.036-3.052-5.664c-2.165-2.165-4.777-3.247-7.837-3.247
		c-3.06,0-5.672,1.083-7.837,3.247c-2.165,2.165-3.247,4.777-3.247,7.837c0,3.06,1.082,5.668,3.247,7.825
		c2.165,2.157,4.777,3.235,7.837,3.235c3.06,0,5.672-1.082,7.837-3.247C67.233,42.919,68.25,41.039,68.657,38.907z"/>
	<path d="M78.179,25.479h2.197v4.37c0.456-0.651,0.984-1.277,1.587-1.88c1.937-1.937,3.922-2.954,5.957-3.052v2.393
		c-1.384,0.065-2.816,0.838-4.297,2.319c-2.083,2.067-3.166,4.549-3.247,7.446v12.378h-2.197V25.479z"/>
	<path d="M118.682,49.454h-2.197v-4.883c-0.423,0.57-0.887,1.115-1.392,1.636c-2.621,2.621-5.786,3.931-9.497,3.931
		c-3.695,0-6.853-1.31-9.473-3.931c-2.621-2.62-3.931-5.778-3.931-9.473c0-3.711,1.31-6.876,3.931-9.497
		c2.62-2.62,5.778-3.931,9.473-3.931c3.711,0,6.876,1.311,9.497,3.931c0.504,0.521,0.968,1.066,1.392,1.636v-3.394h2.197V49.454z
		 M116.484,38.907v-4.346c-0.407-2.148-1.424-4.036-3.052-5.664c-2.165-2.165-4.777-3.247-7.837-3.247
		c-3.06,0-5.672,1.083-7.837,3.247c-2.165,2.165-3.247,4.777-3.247,7.837c0,3.06,1.082,5.668,3.247,7.825
		c2.165,2.157,4.777,3.235,7.837,3.235c3.06,0,5.672-1.082,7.837-3.247C115.06,42.919,116.077,41.039,116.484,38.907z"/>
	<path d="M126.006,10.391h2.197v16.333c1.855-1.79,4.085-2.686,6.689-2.686c2.832,0,5.135,0.887,6.909,2.661
		c1.774,1.774,2.686,4.012,2.734,6.714v16.04h-2.197V33.609c0-2.034-0.737-3.772-2.209-5.212c-1.473-1.44-3.219-2.161-5.237-2.161
		c-2.019,0-3.76,0.708-5.225,2.124c-0.651,0.651-1.14,1.327-1.465,2.026v19.067h-2.197V10.391z"/>
	<path d="M177.764,47.305l-5.42,11.304h-2.148l6.47-13.574l-9.351-19.556h2.49l7.959,17.188l7.959-17.188h2.466L177.764,47.33
		V47.305z"/>
	<path d="M218.828,49.454h-2.197v-4.883c-0.423,0.57-0.887,1.115-1.392,1.636c-2.621,2.621-5.786,3.931-9.497,3.931
		c-3.695,0-6.853-1.31-9.473-3.931c-2.621-2.62-3.931-5.778-3.931-9.473c0-3.711,1.31-6.876,3.931-9.497
		c2.62-2.62,5.778-3.931,9.473-3.931c3.711,0,6.876,1.311,9.497,3.931c0.504,0.521,0.968,1.066,1.392,1.636v-3.394h2.197V49.454z
		 M216.631,38.907v-4.346c-0.407-2.148-1.424-4.036-3.052-5.664c-2.165-2.165-4.777-3.247-7.837-3.247
		c-3.06,0-5.672,1.083-7.837,3.247c-2.165,2.165-3.247,4.777-3.247,7.837c0,3.06,1.082,5.668,3.247,7.825
		c2.165,2.157,4.777,3.235,7.837,3.235c3.06,0,5.672-1.082,7.837-3.247C215.207,42.919,216.224,41.039,216.631,38.907z"/>
	<path d="M228.35,30.826v18.628h-2.197V25.479h2.197v1.538c2.002-1.985,4.329-2.979,6.982-2.979c2.832,0,5.135,0.887,6.909,2.661
		c1.774,1.774,2.686,4.012,2.734,6.714v16.04h-2.197V33.609c0-2.034-0.737-3.772-2.209-5.212c-1.473-1.44-3.219-2.161-5.237-2.161
		c-2.019,0-3.76,0.708-5.225,2.124C229.31,29.158,228.724,29.979,228.35,30.826z"/>
	<path d="M275.908,44.693c-0.407,0.521-0.847,1.025-1.318,1.514c-2.621,2.621-5.786,3.931-9.497,3.931
		c-3.695,0-6.853-1.31-9.473-3.931c-2.621-2.62-3.931-5.778-3.931-9.473c0-3.711,1.31-6.873,3.931-9.485
		c2.62-2.612,5.778-3.918,9.473-3.918c3.711,0,6.876,1.302,9.497,3.906c0.504,0.521,0.968,1.066,1.392,1.636v-3.394h2.197v18.628
		c0,3.597-1.278,6.673-3.833,9.229c-2.621,2.62-5.778,3.931-9.473,3.931c-3.711,0-6.877-1.311-9.497-3.931
		c-0.537-0.537-1.018-1.099-1.44-1.685l2.319-0.83c0.244,0.293,0.504,0.578,0.781,0.854c2.165,2.165,4.777,3.247,7.837,3.247
		c3.043,0,5.647-1.083,7.812-3.247C274.655,49.706,275.729,47.378,275.908,44.693z M275.957,34.439
		c-0.423-2.1-1.433-3.947-3.027-5.542c-2.165-2.165-4.777-3.247-7.837-3.247c-3.06,0-5.672,1.083-7.837,3.247
		c-2.165,2.165-3.247,4.777-3.247,7.837c0,3.06,1.082,5.672,3.247,7.837c2.165,2.165,4.777,3.247,7.837,3.247
		c3.06,0,5.672-1.082,7.837-3.247c1.579-1.579,2.588-3.41,3.027-5.493V34.439z"/>
	<path d="M302.886,10.391h2.197v18.457c0.406-0.553,0.87-1.09,1.392-1.611c2.62-2.62,5.777-3.931,9.473-3.931
		c3.711,0,6.872,1.311,9.485,3.931c2.611,2.621,3.918,5.786,3.918,9.497c0,3.695-1.307,6.853-3.918,9.473
		c-2.613,2.621-5.774,3.931-9.485,3.931c-3.695,0-6.853-1.31-9.473-3.931c-0.521-0.521-0.985-1.058-1.392-1.611v4.858h-2.197V10.391
		z M305.083,34.439v4.59c0.423,2.083,1.432,3.923,3.027,5.518c2.164,2.165,4.776,3.247,7.837,3.247c3.06,0,5.672-1.078,7.837-3.235
		c2.164-2.156,3.247-4.765,3.247-7.825c0-3.06-1.083-5.672-3.247-7.837c-2.165-2.165-4.777-3.247-7.837-3.247
		c-3.061,0-5.673,1.083-7.837,3.247C306.515,30.492,305.506,32.339,305.083,34.439z"/>
	<path d="M361.943,49.454h-2.197v-4.883c-0.424,0.57-0.888,1.115-1.392,1.636c-2.621,2.621-5.786,3.931-9.497,3.931
		c-3.695,0-6.853-1.31-9.473-3.931c-2.621-2.62-3.931-5.778-3.931-9.473c0-3.711,1.31-6.876,3.931-9.497
		c2.62-2.62,5.777-3.931,9.473-3.931c3.711,0,6.876,1.311,9.497,3.931c0.504,0.521,0.968,1.066,1.392,1.636v-3.394h2.197V49.454z
		 M359.746,38.907v-4.346c-0.407-2.148-1.425-4.036-3.052-5.664c-2.165-2.165-4.777-3.247-7.837-3.247
		c-3.061,0-5.673,1.083-7.837,3.247c-2.165,2.165-3.247,4.777-3.247,7.837c0,3.06,1.082,5.668,3.247,7.825
		c2.164,2.157,4.776,3.235,7.837,3.235c3.06,0,5.672-1.082,7.837-3.247C358.321,42.919,359.339,41.039,359.746,38.907z"/>
	<path d="M369.268,25.479h2.197v4.37c0.455-0.651,0.984-1.277,1.587-1.88c1.937-1.937,3.922-2.954,5.957-3.052v2.393
		c-1.384,0.065-2.816,0.838-4.297,2.319c-2.084,2.067-3.166,4.549-3.247,7.446v12.378h-2.197V25.479z"/>
	<path d="M386.602,30.826v18.628h-2.197V25.479h2.197v1.538c2.002-1.985,4.329-2.979,6.982-2.979c2.832,0,5.135,0.887,6.909,2.661
		c1.773,1.774,2.686,4.012,2.734,6.714v16.04h-2.197V33.609c0-2.034-0.736-3.772-2.21-5.212c-1.473-1.44-3.219-2.161-5.236-2.161
		c-2.019,0-3.76,0.708-5.225,2.124C387.562,29.158,386.976,29.979,386.602,30.826z"/>
	<path d="M415.117,44.961c2.066,1.888,4.524,2.832,7.373,2.832c3.06,0,5.672-1.082,7.837-3.247c0.276-0.276,0.537-0.562,0.781-0.854
		l2.319,0.83c-0.424,0.586-0.903,1.147-1.44,1.685c-2.621,2.621-5.786,3.931-9.497,3.931c-3.695,0-6.853-1.31-9.473-3.931
		c-2.621-2.62-3.931-5.786-3.931-9.497c0-3.694,1.31-6.852,3.931-9.473c2.62-2.62,5.777-3.931,9.473-3.931
		c3.174,0,5.948,0.952,8.325,2.856c0.391,0.326,0.781,0.684,1.172,1.074c0.146,0.146,0.284,0.293,0.415,0.439l-1.66,1.66
		L415.117,44.961z M429.131,27.847c-1.904-1.465-4.118-2.197-6.641-2.197c-3.044,0-5.648,1.079-7.812,3.235
		c-2.165,2.157-3.247,4.765-3.247,7.825c0,2.523,0.732,4.736,2.197,6.641L429.131,27.847z"/>
	<path d="M450.981,25.479l-5.908,7.324l9.424,16.65h-2.734l-8.13-14.893l-2.148,2.661v12.231h-2.197v-34.18h2.197v18.433
		l6.665-8.228H450.981z"/>
	<path d="M470.439,23.306c3.711,0,6.872,1.311,9.485,3.931c2.611,2.621,3.918,5.786,3.918,9.497c0,3.695-1.307,6.853-3.918,9.473
		c-2.613,2.621-5.774,3.931-9.485,3.931c-3.695,0-6.853-1.31-9.473-3.931c-2.621-2.62-3.931-5.778-3.931-9.473
		c0-3.711,1.31-6.876,3.931-9.497C463.587,24.617,466.744,23.306,470.439,23.306z M462.603,28.897
		c-2.165,2.165-3.247,4.777-3.247,7.837c0,3.06,1.082,5.668,3.247,7.825c2.164,2.157,4.776,3.235,7.837,3.235
		c3.06,0,5.672-1.078,7.837-3.235c2.164-2.156,3.247-4.765,3.247-7.825c0-3.06-1.083-5.672-3.247-7.837
		c-2.165-2.165-4.777-3.247-7.837-3.247C467.379,25.65,464.767,26.732,462.603,28.897z"/>
	<path d="M501.226,43.106V25.479h2.197v17.09c0,1.433,0.484,2.629,1.453,3.589c0.968,0.96,2.127,1.44,3.479,1.44
		c1.351,0,2.515-0.48,3.491-1.44c0.895-0.895,1.375-1.978,1.44-3.247h-0.024V25.479h2.197v17.432
		c-0.065,1.872-0.757,3.467-2.075,4.785c-1.384,1.4-3.061,2.1-5.029,2.1c-1.97,0-3.646-0.7-5.029-2.1
		c-0.375-0.374-0.7-0.765-0.977-1.172c-0.277,0.407-0.61,0.798-1.001,1.172c-1.384,1.4-3.061,2.1-5.029,2.1
		c-1.97,0-3.646-0.7-5.029-2.1c-1.318-1.318-2.011-2.913-2.075-4.785V25.479h2.197v17.432h-0.024
		c0.064,1.27,0.553,2.352,1.465,3.247c0.96,0.96,2.115,1.44,3.467,1.44c1.351,0,2.515-0.48,3.491-1.44
		C500.64,45.328,501.111,44.311,501.226,43.106z"/>
</g>
</svg>
